<mxfile host="app.diagrams.net" modified="2024-07-13T21:37:04.970Z" agent="Mozilla/5.0 (Windows NT 10.0; Win64; x64) AppleWebKit/537.36 (KHTML, like Gecko) Chrome/126.0.0.0 Safari/537.36" version="24.6.5" etag="_t7mWQY2j9a4QazEFj_g" type="github">
  <diagram name="PÃ¡gina-1" id="PwmhfUHfKLb_ZKc5QqAc">
    <mxGraphModel>
      <root>
        <mxCell id="0" />
        <mxCell id="1" parent="0" />
      </root>
    </mxGraphModel>
  </diagram>
</mxfile>
